<?xml version="1.0" encoding="UTF-8" standalone="no"?>
<svg
   xmlns:dc="http://purl.org/dc/elements/1.1/"
   xmlns:cc="http://creativecommons.org/ns#"
   xmlns:rdf="http://www.w3.org/1999/02/22-rdf-syntax-ns#"
   xmlns:svg="http://www.w3.org/2000/svg"
   xmlns="http://www.w3.org/2000/svg"
   xmlns:sodipodi="http://sodipodi.sourceforge.net/DTD/sodipodi-0.dtd"
   xmlns:inkscape="http://www.inkscape.org/namespaces/inkscape"
   inkscape:export-ydpi="96"
   inkscape:export-xdpi="96"
   inkscape:export-filename="B:\git\github\OpenEnergyPlatform\organisation\logo\OpenEnergyFamily_Logo_Energy_Databus_simple.png"
   version="1.1"
   id="svg3908"
   x="0px"
   y="0px"
   viewBox="0 0 1512 1512"
   style="enable-background:new 0 0 1512 1512;"
   xml:space="preserve"
   sodipodi:docname="OpenEnergyFamily_Logo_Energy_Databus_simple.svg"
   inkscape:version="1.0 (4035a4fb49, 2020-05-01)"><metadata
   id="metadata54"><rdf:RDF><cc:Work
       rdf:about=""><dc:format>image/svg+xml</dc:format><dc:type
         rdf:resource="http://purl.org/dc/dcmitype/StillImage" /><dc:title></dc:title></cc:Work></rdf:RDF></metadata><defs
   id="defs52" /><sodipodi:namedview
   inkscape:document-rotation="0"
   pagecolor="#ffffff"
   bordercolor="#666666"
   borderopacity="1"
   objecttolerance="10"
   gridtolerance="10"
   guidetolerance="10"
   inkscape:pageopacity="0"
   inkscape:pageshadow="2"
   inkscape:window-width="2880"
   inkscape:window-height="1526"
   id="namedview50"
   showgrid="false"
   inkscape:zoom="0.52910053"
   inkscape:cx="756"
   inkscape:cy="756"
   inkscape:window-x="-11"
   inkscape:window-y="-11"
   inkscape:window-maximized="1"
   inkscape:current-layer="svg3908" />
<style
   type="text/css"
   id="style2">
	.st0{enable-background:new    ;}
	.st1{fill:#1F567D;}
</style>
<g
   style="fill:#ffffff"
   id="layer1">
	
	<path
   style="fill:#ffffff"
   id="path842"
   class="st1"
   d="m 743.25,37.64 c -390.8,0 -707.6,316.8 -707.6,707.6 v 0 c 0.2,220.9 103.6,429.1 279.6,562.7 l 50.1,-68.2 c -154.3,-117.6 -245,-300.4 -245.3,-494.5 0,-344.2 279,-623.2 623.2,-623.2 v 0 c 344.2,0 623.2,279 623.2,623.2 v 0 c -0.2,195.5 -92.2,379.6 -248.5,497.2 l 49.8,67.8 c 177.9,-133.4 282.8,-342.7 283.1,-565 0,-390.8 -316.8,-707.6 -707.6,-707.6 z" />
</g>
<g
   style="fill:#ffffff"
   id="g47">
	<path
   style="fill:#ffffff"
   class="st1"
   d="M1069.4,1056.4H973l3.6-477.6l-84.5-137L442.5,443l0.7-89.4h626.1L1069.4,1056.4L1069.4,1056.4z M998.2,1031.4   h46.1V378.6H468l-0.3,39.4l438.3-1.3l95.7,155.1L998.2,1031.4z"
   id="path39" />
	<path
   style="fill:#ffffff"
   class="st1"
   d="M666.5,1055H443.1V492.3h97.7L666.5,657V1055z M468.1,1030h173.4V665.4l-113-148.2h-60.4V1030z"
   id="path41" />
	<path
   style="fill:#ffffff"
   class="st1"
   d="M799.7,1055h-91V655.4L593.5,492.3h112.8l93.5,128.9L799.7,1055L799.7,1055z M733.7,1030h41V629.2l-81.2-112   h-51.8l92,130.3V1030z"
   id="path43" />
	<path
   style="fill:#ffffff"
   class="st1"
   d="M927.7,1055h-86.5V611l-81.7-118.8h103.2l64.9,92.9L927.7,1055L927.7,1055z M866.3,1030h36.5V593.1l-52.9-75.8   h-42.7l59.1,86L866.3,1030L866.3,1030z"
   id="path45" />
</g>
</svg>
