<?xml version="1.0" encoding="UTF-8"?>
<svg id="svg3908" xmlns="http://www.w3.org/2000/svg" viewBox="0 0 1133.86 1133.86">
  <defs>
    <style>
      .cls-1 {
        fill: #1f567d;
      }

      .cls-2, .cls-3 {
        isolation: isolate;
      }

      .cls-3 {
        font-family: Roboto-Black, Roboto;
        font-size: 155.2px;
        font-weight: 800;
        letter-spacing: 0em;
      }
    </style>
  </defs>
  <g id="layer1">
    <g id="text2967" class="cls-2">
      <text class="cls-3" transform="translate(235.26 1097.69)"><tspan x="0" y="0">Academy</tspan></text>
    </g>
    <path id="path842" class="cls-1" d="m566.93,5.67c-294.57,0-533.36,238.79-533.36,533.36h0c.17,166.53,78.12,323.43,210.72,424.16l37.77-51.42c-116.29-88.7-184.62-226.49-184.85-372.74,0-259.42,210.3-469.72,469.72-469.72h0c259.42,0,469.72,210.3,469.72,469.72h0c-.17,147.39-69.52,286.15-187.29,374.78l37.55,51.12c134.09-100.55,213.12-258.29,213.38-425.89,0-294.57-238.79-533.36-533.36-533.36Z"/>
    <path class="cls-1" d="m923.21,448.18l-356.29-201.87-356.29,201.87,113.45,64.28v164l3.95,4.56c1.09,1.26,27.02,30.98,70.18,60.89,57.64,39.94,118.88,61.05,177.11,61.05,82.89,0,160.45-41.04,230.5-121.95l3.95-4.56v-164l47.46-26.89v191.5h32.37v-209.84l33.62-19.04h-.01Zm-356.29-164.67l290.63,164.67-290.63,164.67-290.63-164.67,290.63-164.67Zm210.48,380.82c-62.49,70.44-130.38,106.18-201.88,106.26h-.21c-64.86,0-121.67-29.78-157.9-54.76-30.81-21.24-52.5-42.79-60.98-51.72v-133.33l210.48,119.26,210.48-119.26v133.55h.01Z"/>
  </g>
</svg>