<?xml version="1.0" encoding="UTF-8" standalone="no"?>
<svg
   xmlns:dc="http://purl.org/dc/elements/1.1/"
   xmlns:cc="http://creativecommons.org/ns#"
   xmlns:rdf="http://www.w3.org/1999/02/22-rdf-syntax-ns#"
   xmlns:svg="http://www.w3.org/2000/svg"
   xmlns="http://www.w3.org/2000/svg"
   xmlns:sodipodi="http://sodipodi.sourceforge.net/DTD/sodipodi-0.dtd"
   xmlns:inkscape="http://www.inkscape.org/namespaces/inkscape"
   inkscape:export-ydpi="96"
   inkscape:export-xdpi="96"
   inkscape:export-filename="B:\git\github\OpenEnergyPlatform\organisation\logo\OpenEnergyFamily_Logo_Academy_icon.png"
   height="200"
   width="200"
   inkscape:version="1.0 (4035a4fb49, 2020-05-01)"
   sodipodi:docname="OpenEnergyFamily_Logo_Academy_icon.svg"
   version="1.1"
   viewBox="0 0 200 200"
   id="svg3908">
  <metadata
     id="metadata18">
    <rdf:RDF>
      <cc:Work
         rdf:about="">
        <dc:format>image/svg+xml</dc:format>
        <dc:type
           rdf:resource="http://purl.org/dc/dcmitype/StillImage" />
        <dc:title></dc:title>
      </cc:Work>
    </rdf:RDF>
  </metadata>
  <sodipodi:namedview
     inkscape:current-layer="svg3908"
     inkscape:window-maximized="1"
     inkscape:window-y="-11"
     inkscape:window-x="-11"
     inkscape:cy="135.33972"
     inkscape:cx="130.61603"
     inkscape:zoom="2.8222179"
     showgrid="false"
     id="namedview16"
     inkscape:window-height="986"
     inkscape:window-width="1920"
     inkscape:pageshadow="2"
     inkscape:pageopacity="0"
     guidetolerance="10"
     gridtolerance="10"
     objecttolerance="10"
     borderopacity="1"
     bordercolor="#666666"
     pagecolor="#ffffff" />
  <defs
     id="defs4">
    <style
       id="style2">
      .cls-1 {
        fill: #1f567d;
      }

      .cls-2, .cls-3 {
        isolation: isolate;
      }

      .cls-3 {
        font-family: Roboto-Black, Roboto;
        font-size: 155.2px;
        font-weight: 800;
        letter-spacing: 0em;
      }
    </style>
  </defs>
  <path
     style="stroke-width:0.27365"
     class="cls-1"
     d="M 197.49726,77.24165 99.998635,22 2.5,77.24165 33.545552,94.83186 v 44.87852 l 1.080916,1.24784 c 0.298279,0.34481 7.394014,8.47767 19.204732,16.66253 15.773165,10.92956 32.531469,16.70631 48.46608,16.70631 22.68282,0 43.90709,-11.23058 63.07624,-33.37156 l 1.08093,-1.24783 V 94.82911 l 12.98741,-7.35843 v 52.4039 h 8.85804 V 82.45194 L 197.5,77.24165 Z M 99.998635,32.179767 179.52942,77.24165 99.998635,122.30353 20.467835,77.24165 Z M 157.5964,136.39103 c -17.10036,19.27586 -35.67843,29.05611 -55.24438,29.07799 h -0.0575 c -17.748917,0 -33.294952,-8.14928 -43.209279,-14.98505 C 50.654096,144.67166 44.718636,138.7745 42.398086,136.33081 V 99.84512 l 57.597738,32.63544 57.597766,-32.63544 v 36.5459 z"
     id="path12" />
</svg>
