<?xml version="1.0" encoding="UTF-8"?>
<svg id="svg8" xmlns="http://www.w3.org/2000/svg" viewBox="0 0 1344.7 1419.9">
  <defs>
    <style>
      .cls-1 {
        stroke-width: 19px;
      }

      .cls-1, .cls-2, .cls-3 {
        fill: #1f567d;
      }

      .cls-1, .cls-3 {
        stroke: #fff;
        stroke-miterlimit: 10;
      }

      .cls-4 {
        fill: #a9cfe5;
      }

      .cls-5 {
        fill: #142c3d;
      }

      .cls-6 {
        fill: #447498;
      }

      .cls-7 {
        fill: #1a3f5a;
      }

      .cls-3 {
        stroke-width: 20px;
      }

      .cls-8, .cls-9 {
        stroke-linecap: round;
      }

      .cls-8, .cls-9, .cls-10 {
        fill: none;
        stroke: #1a3f5a;
        stroke-miterlimit: 11.34;
      }

      .cls-8, .cls-10 {
        stroke-width: 11.34px;
      }

      .cls-9 {
        stroke-width: 5.67px;
      }
    </style>
  </defs>
  <path class="cls-3" d="m723.31,281.8c-.19,0-.38,0-.57,0-.21,0-.41,0-.62,0-78.69,0-153.18,17.96-219.61,50-81.87,39.16-152.39,99.86-202.49,176.79-53.08,80.05-84,176.07-84,279.32.03,153.71,68.7,297.16,183.15,391.28l61.01-162.28c-53.56-63.67-85.88-144.51-86.01-228.99,0-91.37,35.22-174.51,92.82-236.59,66.79-68.4,158.82-111.02,255.68-111.35,109.4.32,213.36,51.28,278.83,138.95,43.78,58.19,69.74,130.56,69.74,208.99-.14,109.61-51.92,212.75-139.74,278.34l94.73,126.32c127.65-95.38,202.92-245.31,203.17-404.65,0-279.51-226.59-506.1-506.1-506.1Z"/>
  <path class="cls-2" d="m377.62,1158.81l63.35-168.38c-41.93-59.22-66.6-130.25-66.71-204.05,0-164.6,114.3-302.5,267.86-338.68v-161.11c-241.45,38.39-426.01,247.53-426.01,499.79.03,143.77,60.1,278.58,161.52,372.43Z"/>
  <g id="layer2">
    <path id="path897" class="cls-6" d="m522.15,793.37s-78.72-15.26-160.61,65.15c-80.89,79.42-218.79,6.58-236.04,8.38-14.92,1.56-25.03,7.92-22.37,20.79,2.93,18.72-11.03,12.57-20.89,14.2-12.86,2.14-20.72,10.45-6.96,26.52,5.82,6.8,5.36,15.54-2.14,17.68-7.5,2.14-21.43,20.09-3.21,29.73,18.21,9.64-13.09,29.85,9.37,40.18,61.77,10.59,18.86,31.98,46.53,35.67s32.8-27.54,81.33-41.02c51.09-14.32,124.19-40.02,124.19-40.02,0,0-4.29,24.21-4.29,47.78s11.79,106.07,72.86,116.79c61.07,10.71,158.57,5.36,212.14-45,43.07-40.49,82.5-78.21,109.29-38.57,26.79,39.64,58.93,127.5,52.5,145.71s-23.57,50.36-20.36,62.14,21.16,19.08,31.07,6.43c12.76-16.29,21.62,6.01,26.28,19.84,6.17,18.3,6.94,28.38,23.01,30.52,16.07,2.14,10.71-21.43,36.43-12.86,20.36,8.57,20.36,21.84,36.43,16.07,25.83-9.27,5.36-25.71,40.71-34.29,11.21-2.72,26.79,1.07,31.07-10.71,3.12-18.99-14.46-24.35,2.14-37.5,18.36-5.16,24.64-21.43,7.5-33.21-17.14-11.79-121.07-85.71-136.07-126.43-15-40.71-16.72-95.87,9.64-130.71,34.22-45.22,100.47-68.6,136.88-162.46,44.26-114.1,66.84-155.73,83.84-168.62,81-61.4,153.45-14.99,173.57-37.5,16.71-22.89-8.57-24.64-7.5-35.36,1.07-10.71,22.5-16.07,23.57-30-.78-14.99-15.16-11.37-17.14-20.36-2.81-12.72,16.13-19.45,4.91-32.82-11.49-13.7-21.59,1.04-31.23-8.6-9.64-9.64.14-19.46-11.18-26.07-13.28-7.75-10.71,2.14-31.07,2.14s-9.92-12.08-30-11.79c-13.25.19-12.01,14.23-16.07,22.5-5.79,11.79-86.67,69.83-105,37.5-22.12-39.02,40.9-129.15,135-260.36,62.14-82.5,27.86-146.79-54.64-146.79s-165,19.29-151.07,143.57c13.93,124.29-47.14,189.64-47.14,189.64,0,0-28.82,32.52-41.79,26.79-24.64-10.89,21.03-106.89,45.11-147.32,4.97-8.35,11.69-33.77-8.57-27.86-12.86,3.75-19.55,9.91-22.77-.54-4.49-18.2-5.49-23.57-16.87-23.57s-6.8,10.47-21.43,6.96c-9.77-2.34-9.62-14.11-21.43-11.52-14.08,3.09-3.08,16.64-17.41,18.21-9.63,1.06-8.04-8.04-20.09-7.77-13.72.3,1.87,24.11-13.12,24.11s-19.02,5.89-14.73,15.54c17.14,32.14,9.54,77.68,10.61,116.25s-16.07,82.5-39.64,94.29c-23.57,11.79-88.93,38.57-116.79,97.5-27.86,58.93-42.86,135-63.21,170.36-6.53,11.33-33.12,40.67-33.12,40.67Z"/>
    <path id="path1016" class="cls-4" d="m873.48,932.7s51.43-42.86,67.5-58.93,53.57-69.64,75-127.5c21.43-57.86,38.57-88.93,38.57-88.93,0,0-118.93,137.14-181.07,275.36h0Z"/>
  </g>
  <g id="layer3">
    <path id="path943" class="cls-7" d="m380.63,1010.91c-22.5-8.57-35.36,1.07-34.29,34.29,1.07,33.21,12.86,108.21-84.64,183.21-35.36,27.86-53.61,82.1,8.57,115.71,39.64,21.43,124.29,5.36,133.93-75,9.64-80.36,55.71-132.86,86.79-180,7.69-11.66-9.64-38.57-21.43-42.86-11.79-4.29-5.36-27.86-26.79-35.36-19.29-12.86-51.43-18.21-62.14,0h0Z"/>
  </g>
  <g id="layer11">
    <path id="path1216" class="cls-10" d="m522.15,793.37s-78.72-15.26-160.61,65.15c-80.89,79.42-218.79,6.58-236.04,8.38-14.92,1.56-25.03,7.92-22.37,20.79,2.93,18.72-11.03,12.57-20.89,14.2-12.86,2.14-20.72,10.45-6.96,26.52,5.82,6.8,5.36,15.54-2.14,17.68-7.5,2.14-21.43,20.09-3.21,29.73,18.21,9.64-13.09,29.85,9.37,40.18,61.77,10.59,18.86,31.98,46.53,35.67s32.8-27.54,81.33-41.02c51.09-14.32,120.06-32.9,120.06-32.9,0,0-.16,17.09-.16,40.66s11.79,106.07,72.86,116.79c61.07,10.71,158.57,5.36,212.14-45,43.07-40.49,82.5-78.21,109.29-38.57,26.79,39.64,58.93,127.5,52.5,145.71-6.43,18.21-23.57,50.36-20.36,62.14s21.16,19.08,31.07,6.43c12.76-16.29,21.62,6.01,26.28,19.84,6.17,18.3,6.94,28.38,23.01,30.52,16.07,2.14,10.71-21.43,36.43-12.86,20.36,8.57,20.36,21.84,36.43,16.07,25.83-9.27,5.36-25.71,40.71-34.29,11.21-2.72,26.79,1.07,31.07-10.71,3.12-18.99-14.46-24.35,2.14-37.5,18.36-5.16,24.64-21.43,7.5-33.21s-121.07-85.71-136.07-126.43c-15-40.71-16.72-95.87,9.64-130.71,34.22-45.22,100.47-68.6,136.88-162.46,44.26-114.1,66.84-155.73,83.84-168.62,81-61.4,153.45-14.99,173.57-37.5,16.71-22.89-8.57-24.64-7.5-35.36,1.07-10.71,22.5-16.07,23.57-30-.78-14.99-15.16-11.37-17.14-20.36-2.81-12.72,16.13-19.45,4.91-32.82-11.49-13.7-21.59,1.04-31.23-8.6-9.64-9.64.14-19.46-11.18-26.07-13.28-7.75-10.71,2.14-31.07,2.14s-9.92-12.08-30-11.79c-13.25.19-12.01,14.23-16.07,22.5-5.79,11.79-86.67,69.83-105,37.5-22.12-39.02,40.9-129.15,135-260.36,62.14-82.5,27.86-146.79-54.64-146.79s-165,19.29-151.07,143.57c13.93,124.29-47.14,189.64-47.14,189.64,0,0-28.82,32.52-41.79,26.79-24.64-10.89,21.03-106.89,45.11-147.32,4.97-8.35,11.69-33.77-8.57-27.86-12.86,3.75-19.55,9.91-22.77-.54-4.49-18.2-5.49-23.57-16.87-23.57s-6.8,10.47-21.43,6.96c-9.77-2.34-9.62-14.11-21.43-11.52-14.08,3.09-3.08,16.64-17.41,18.21-9.63,1.06-8.04-8.04-20.09-7.77-13.72.3,1.87,24.11-13.13,24.11s-19.02,5.89-14.73,15.54c17.14,32.14,9.54,77.68,10.61,116.25,1.07,38.57-16.07,82.5-39.64,94.29-23.57,11.79-88.93,38.57-116.79,97.5-27.86,58.93-42.86,135-63.21,170.36-6.53,11.33-33.12,40.67-33.12,40.67h0Z"/>
    <path id="path1313" class="cls-8" d="m522.15,793.37s52.81,7.81,93.74,33.59"/>
    <path id="path1315" class="cls-10" d="m327.22,977.76s-.22-80.6,46.28-130.85"/>
  </g>
  <g id="layer5">
    <path id="path943-4" class="cls-10" d="m380.63,1010.91c-22.5-8.57-35.36,1.07-34.29,34.29,1.07,33.21,12.86,108.21-84.64,183.21-35.36,27.86-53.61,82.1,8.57,115.71,39.64,21.43,124.29,5.36,133.93-75,9.64-80.36,55.71-132.86,86.79-180,7.69-11.66-9.64-38.57-21.43-42.86-11.79-4.29-5.36-27.86-26.79-35.36-19.29-12.86-51.43-18.21-62.14,0h0Z"/>
  </g>
  <g id="layer6">
    <ellipse id="path991" class="cls-5" cx="372.01" cy="953.76" rx="25.28" ry="15.02" transform="translate(-602.14 1268.54) rotate(-86.6)"/>
    <ellipse id="ellipse993" class="cls-5" cx="506.47" cy="1014.54" rx="25.28" ry="15.02" transform="translate(-589.95 1303.82) rotate(-78.25)"/>
    <ellipse id="ellipse1010" class="cls-5" cx="330.5" cy="1210.25" rx="21.47" ry="8.99" transform="translate(-877.56 871.82) rotate(-59.08)"/>
    <ellipse id="ellipse1012" class="cls-5" cx="354.75" cy="1220.86" rx="21.47" ry="8.99" transform="translate(-874.87 897.78) rotate(-59.08)"/>
  </g>
  <g id="layer12">
    <path id="path1410" class="cls-9" d="m795.55,650.34s15-42,39-64.5"/>
    <path id="path1418" class="cls-9" d="m1098.55,210.72c30-54,34.5-85.5,34.5-85.5"/>
    <path id="path1432" class="cls-9" d="m993.55,398.22s25.5-34.5,33-54"/>
    <path id="path1436" class="cls-9" d="m916.08,657.99s28.38-47.79,52.27-59.74"/>
    <path id="path1440" class="cls-9" d="m768.22,508.64s37.34-34.35,44.81-49.29,7.47-17.92,7.47-17.92"/>
    <path id="path1490" class="cls-9" d="m658.99,848.57s17.95-10.56,30.63-30.63"/>
    <path id="path1492" class="cls-9" d="m642.09,631.02s2.11-29.57,12.67-40.13"/>
    <path id="path1494" class="cls-9" d="m588.23,758.8s14.79-15.84,16.9-41.19"/>
    <path id="path1496" class="cls-9" d="m755.09,764.08s11.62-43.3,32.74-66.53"/>
    <path id="path1498" class="cls-9" d="m901.89,547.59l30.63-34.85"/>
    <path id="path1500" class="cls-9" d="m697.35,608.1s10.37-30.4,28.89-49.21"/>
    <path id="path1502" class="cls-9" d="m856.97,666.13s-12.98,13.44-24.26,44.87"/>
    <path id="path1504" class="cls-9" d="m733.97,842.23s27.46-20.07,35.91-42.24"/>
    <path id="path1506" class="cls-9" d="m816.34,808.44s20.07-41.19,45.41-64.42"/>
    <path id="path1508" class="cls-9" d="m782.55,561.32s28.51-24.29,39.07-46.47"/>
    <path id="path1510" class="cls-9" d="m670.62,746.01s21.63-30.58,26.38-54.68"/>
    <path id="path1512" class="cls-9" d="m1018.37,284.07s20.1-31.61,23.66-55.91"/>
    <path id="path1514" class="cls-9" d="m997.99,200.14s20.07-41.19,45.41-64.42"/>
  </g>
  <g id="layer10">
    <circle id="path877" class="cls-4" cx="537.38" cy="1311.58" r="48.79"/>
    <circle id="circle879" class="cls-4" cx="600.38" cy="174.59" r="48.79"/>
    <circle id="circle881" class="cls-4" cx="1236.38" cy="1122.58" r="48.79"/>
    <circle id="circle883" class="cls-4" cx="123.38" cy="747.59" r="37.45"/>
    <circle id="circle885" class="cls-4" cx="378.38" cy="267.59" r="37.45"/>
    <circle id="circle887" class="cls-4" cx="1192.13" cy="343.34" r="22.81" transform="translate(662.27 1465.08) rotate(-80.78)"/>
    <circle id="circle889" class="cls-4" cx="493.13" cy="667.34" r="22.81"/>
    <circle id="circle891" class="cls-4" cx="490.13" cy="82.34" r="22.81"/>
  </g>
  <path class="cls-1" d="m722.51,280.35c-.19,0-.38,0-.57,0-.21,0-.41,0-.62,0-78.69,0-153.18,17.96-219.61,50-16.41,7.85-32.36,16.58-47.78,26.12l89.89,132.29c53.49-31.75,114.74-50.04,178.06-50.25,109.4.32,213.36,51.28,278.83,138.95,43.78,58.19,69.74,130.56,69.74,208.99-.14,109.61-51.92,212.75-139.74,278.34l94.73,126.32c127.65-95.38,202.92-245.31,203.17-404.65,0-279.51-226.59-506.1-506.1-506.1Z"/>
  <g id="layer7">
    <path id="path873" class="cls-2" d="m724.02,281.07c-209.38.04-399.76,127.42-472.28,324.43h171.56c66.31-99.97,179.79-166.09,300.72-166.27,192.16,0,347.94,155.78,347.94,347.94-.14,109.61-51.92,212.75-139.74,278.34l94.73,126.32c127.65-95.38,202.92-245.31,203.17-404.65,0-279.51-226.59-506.1-506.1-506.1Z"/>
  </g>
  <path class="cls-2" d="m444.75,365l.99-2.4s47.29-28.94,58.02-31.48-18.78,17.93-18.78,17.93l-42.92,21.04,2.68-5.08Z"/>
</svg>