<?xml version="1.0" encoding="UTF-8" standalone="no"?>
<svg
   xmlns:dc="http://purl.org/dc/elements/1.1/"
   xmlns:cc="http://creativecommons.org/ns#"
   xmlns:rdf="http://www.w3.org/1999/02/22-rdf-syntax-ns#"
   xmlns:svg="http://www.w3.org/2000/svg"
   xmlns="http://www.w3.org/2000/svg"
   xmlns:sodipodi="http://sodipodi.sourceforge.net/DTD/sodipodi-0.dtd"
   xmlns:inkscape="http://www.inkscape.org/namespaces/inkscape"
   inkscape:export-ydpi="96"
   inkscape:export-xdpi="96"
   inkscape:export-filename="\\FS01\RL-Institut\04_Projekte\207_SzenarienDB\03-Projektinhalte\AP4_Umsetzung\OEP-Design\OpenEnergyFamily\Final\OpenEnergyFamily_Logo_OEMetadata_icon.png"
   sodipodi:docname="OpenEnergyFamily_Logo_OEMetadata_icon.svg"
   inkscape:version="1.0 (4035a4fb49, 2020-05-01)"
   id="svg3908"
   version="1.1"
   viewBox="0 0 199.99999 200"
   height="200mm"
   width="200mm">
  <defs
     id="defs3902">
    <clipPath
       id="clipPath16-1"
       clipPathUnits="userSpaceOnUse">
      <path
         inkscape:connector-curvature="0"
         style="clip-rule:evenodd"
         id="path18-7"
         d="M 0,1.8311e-4 H 567 V 567.00018 H 0 Z" />
    </clipPath>
  </defs>
  <sodipodi:namedview
     inkscape:document-rotation="0"
     inkscape:guide-bbox="true"
     showguides="true"
     fit-margin-bottom="2"
     fit-margin-right="2"
     fit-margin-left="2"
     fit-margin-top="2"
     inkscape:window-maximized="1"
     inkscape:window-y="-11"
     inkscape:window-x="-11"
     inkscape:window-height="1526"
     inkscape:window-width="2880"
     showgrid="false"
     inkscape:current-layer="layer1"
     inkscape:document-units="mm"
     inkscape:cy="916.40337"
     inkscape:cx="742.25916"
     inkscape:zoom="0.49497474"
     inkscape:pageshadow="2"
     inkscape:pageopacity="0.0"
     borderopacity="1.0"
     bordercolor="#666666"
     pagecolor="#ffffff"
     id="base">
    <sodipodi:guide
       inkscape:color="rgb(0,0,255)"
       inkscape:label=""
       inkscape:locked="false"
       id="guide859"
       orientation="-1,0"
       position="99.999995,455.30128" />
    <sodipodi:guide
       inkscape:locked="false"
       id="guide861"
       orientation="0,1"
       position="428.70744,321.0119" />
    <sodipodi:guide
       inkscape:locked="false"
       id="guide863"
       orientation="0,1"
       position="423.41578,103.29761" />
    <sodipodi:guide
       inkscape:color="rgb(0,0,255)"
       inkscape:label=""
       inkscape:locked="false"
       id="guide853"
       orientation="-1,0"
       position="299.99999,426.78012" />
  </sodipodi:namedview>
  <metadata
     id="metadata3905">
    <rdf:RDF>
      <cc:Work
         rdf:about="">
        <dc:format>image/svg+xml</dc:format>
        <dc:type
           rdf:resource="http://purl.org/dc/dcmitype/StillImage" />
        <dc:title></dc:title>
      </cc:Work>
    </rdf:RDF>
  </metadata>
  <g
     transform="translate(170.53217,180.4797)"
     id="layer1"
     inkscape:groupmode="layer"
     inkscape:label="Ebene 1">
    <g
       transform="matrix(0.84624179,0,0,0.84624179,-88.889061,-87.713895)"
       id="g25">
      <path
         style="color:#000000;font-style:normal;font-variant:normal;font-weight:normal;font-stretch:normal;font-size:medium;line-height:normal;font-family:sans-serif;font-variant-ligatures:normal;font-variant-position:normal;font-variant-caps:normal;font-variant-numeric:normal;font-variant-alternates:normal;font-feature-settings:normal;text-indent:0;text-align:start;text-decoration:none;text-decoration-line:none;text-decoration-style:solid;text-decoration-color:#000000;letter-spacing:normal;word-spacing:normal;text-transform:none;writing-mode:lr-tb;direction:ltr;text-orientation:mixed;dominant-baseline:auto;baseline-shift:baseline;text-anchor:start;white-space:normal;shape-padding:0;clip-rule:nonzero;display:inline;overflow:visible;visibility:visible;opacity:1;isolation:auto;mix-blend-mode:normal;color-interpolation:sRGB;color-interpolation-filters:linearRGB;solid-color:#000000;solid-opacity:1;vector-effect:none;fill:#1f567d;fill-opacity:1;fill-rule:nonzero;stroke:none;stroke-width:2.64583;stroke-linecap:butt;stroke-linejoin:miter;stroke-miterlimit:4;stroke-dasharray:none;stroke-dashoffset:0;stroke-opacity:1;color-rendering:auto;image-rendering:auto;shape-rendering:auto;text-rendering:auto;enable-background:accumulate"
         d="m -65.409924,-107.25753 v 5.5071 226.10519 H 108.79443 V -57.484226 L 58.369746,-107.25753 Z m 11.15491,11.029116 h 108.0021 l 43.876859,43.323508 V 113.32565 H -54.255014 Z"
         id="path3277"
         inkscape:connector-curvature="0" />
      <path
         style="color:#000000;font-style:normal;font-variant:normal;font-weight:normal;font-stretch:normal;font-size:medium;line-height:normal;font-family:sans-serif;font-variant-ligatures:normal;font-variant-position:normal;font-variant-caps:normal;font-variant-numeric:normal;font-variant-alternates:normal;font-feature-settings:normal;text-indent:0;text-align:start;text-decoration:none;text-decoration-line:none;text-decoration-style:solid;text-decoration-color:#000000;letter-spacing:normal;word-spacing:normal;text-transform:none;writing-mode:lr-tb;direction:ltr;text-orientation:mixed;dominant-baseline:auto;baseline-shift:baseline;text-anchor:start;white-space:normal;shape-padding:0;clip-rule:nonzero;display:inline;overflow:visible;visibility:visible;opacity:1;isolation:auto;mix-blend-mode:normal;color-interpolation:sRGB;color-interpolation-filters:linearRGB;solid-color:#000000;solid-opacity:1;vector-effect:none;fill:#1f567d;fill-opacity:1;fill-rule:nonzero;stroke:none;stroke-width:2.64583;stroke-linecap:butt;stroke-linejoin:miter;stroke-miterlimit:4;stroke-dasharray:none;stroke-dashoffset:0;stroke-opacity:1;color-rendering:auto;image-rendering:auto;shape-rendering:auto;text-rendering:auto;enable-background:accumulate"
         d="m 48.594536,-101.75043 v 52.062984 h 51.985314 v -11.0142 H 59.764176 v -41.048784 z"
         id="path3279"
         inkscape:connector-curvature="0" />
      <path
         style="color:#000000;font-style:normal;font-variant:normal;font-weight:normal;font-stretch:normal;font-size:medium;line-height:normal;font-family:sans-serif;font-variant-ligatures:normal;font-variant-position:normal;font-variant-caps:normal;font-variant-numeric:normal;font-variant-alternates:normal;font-feature-settings:normal;text-indent:0;text-align:start;text-decoration:none;text-decoration-line:none;text-decoration-style:solid;text-decoration-color:#000000;letter-spacing:normal;word-spacing:normal;text-transform:none;writing-mode:lr-tb;direction:ltr;text-orientation:mixed;dominant-baseline:auto;baseline-shift:baseline;text-anchor:start;white-space:normal;shape-padding:0;clip-rule:nonzero;display:inline;overflow:visible;visibility:visible;opacity:1;isolation:auto;mix-blend-mode:normal;color-interpolation:sRGB;color-interpolation-filters:linearRGB;solid-color:#000000;solid-opacity:1;vector-effect:none;fill:#1f567d;fill-opacity:1;fill-rule:nonzero;stroke:none;stroke-width:2.64583;stroke-linecap:butt;stroke-linejoin:miter;stroke-miterlimit:4;stroke-dasharray:none;stroke-dashoffset:0;stroke-opacity:1;color-rendering:auto;image-rendering:auto;shape-rendering:auto;text-rendering:auto;enable-background:accumulate"
         d="m 4.6717893,-18.215776 c 0,0 -4.03056787,-0.1187 -8.3893354,1.53986 -2.1793584,0.82928 -4.6090272,2.1555 -6.5958459,4.46102 -1.986811,2.3055397 -3.307121,5.6305379 -3.307121,9.2617568 V 17.227974 c 0,3.26911 -1.748422,4.52934 -4.628093,5.89671 -2.879722,1.36737 -5.972094,1.75725 -5.972094,1.75725 v 10.96009 c 0,0 3.092392,0.38535 5.972094,1.75272 2.879671,1.36738 4.628093,2.62758 4.628093,5.89673 v 20.18112 c 0,3.6312 1.32031,6.95622 3.307121,9.26174 1.9868187,2.30553 4.4164875,3.63176 6.5958459,4.46105 4.35876753,1.65854 8.3893354,1.54436 8.3893354,1.54436 l -0.10554,-11.02805 c 0,0 -2.3002988,-0.0566 -4.27031754,-0.80614 -0.98503934,-0.37483 -1.71887896,-0.86947 -2.10535866,-1.31794 -0.3864597,-0.44847 -0.6467397,-0.81045 -0.6467397,-2.11502 v -20.18112 c 0,-6.26005 -3.6385179,-10.27897 -7.4902858,-13.12949 3.8521879,-2.85044 7.4902858,-6.87337 7.4902858,-13.13401 V -2.9531392 c 0,-1.3045701 0.26025,-1.6665501 0.6467397,-2.1150398 0.3864797,-0.4484597 1.12031932,-0.9431094 2.10535866,-1.3179191 C 2.2659505,-7.1357278 4.5662493,-7.1922478 4.5662493,-7.1922478 Z"
         id="path3281"
         inkscape:connector-curvature="0" />
      <path
         style="color:#000000;font-style:normal;font-variant:normal;font-weight:normal;font-stretch:normal;font-size:medium;line-height:normal;font-family:sans-serif;font-variant-ligatures:normal;font-variant-position:normal;font-variant-caps:normal;font-variant-numeric:normal;font-variant-alternates:normal;font-feature-settings:normal;text-indent:0;text-align:start;text-decoration:none;text-decoration-line:none;text-decoration-style:solid;text-decoration-color:#000000;letter-spacing:normal;word-spacing:normal;text-transform:none;writing-mode:lr-tb;direction:ltr;text-orientation:mixed;dominant-baseline:auto;baseline-shift:baseline;text-anchor:start;white-space:normal;shape-padding:0;clip-rule:nonzero;display:inline;overflow:visible;visibility:visible;opacity:1;isolation:auto;mix-blend-mode:normal;color-interpolation:sRGB;color-interpolation-filters:linearRGB;solid-color:#000000;solid-opacity:1;vector-effect:none;fill:#1f567d;fill-opacity:1;fill-rule:nonzero;stroke:none;stroke-width:2.64583;stroke-linecap:butt;stroke-linejoin:miter;stroke-miterlimit:4;stroke-dasharray:none;stroke-dashoffset:0;stroke-opacity:1;color-rendering:auto;image-rendering:auto;shape-rendering:auto;text-rendering:auto;enable-background:accumulate"
         d="m 38.701496,-18.215776 0.10553,11.0235282 c 0,0 2.3003,0.0566 4.27033,0.8061497 0.98502,0.3747997 1.7189,0.8694594 2.10539,1.3179191 0.38647,0.4484897 0.64673,0.8104697 0.64673,2.1150398 V 17.227974 c 0,6.26147 3.64206,10.28365 7.49488,13.13401 -3.8524,2.85043 -7.49488,6.86861 -7.49488,13.12949 v 20.18112 c 0,1.30457 -0.26026,1.66655 -0.64673,2.11502 -0.38649,0.44847 -1.12037,0.94311 -2.10539,1.31794 -1.97003,0.74962 -4.27033,0.80614 -4.27033,0.80614 l -0.10553,11.02805 c 0,0 4.03057,0.11411 8.38931,-1.54436 2.17938,-0.82929 4.60906,-2.15552 6.59588,-4.46105 1.98682,-2.30552 3.31169,-5.63054 3.31169,-9.26174 v -20.18112 c 0,-3.26915 1.74384,-4.52935 4.62353,-5.89673 2.87967,-1.36737 5.97206,-1.75272 5.97206,-1.75272 v -10.96009 c 0,0 -3.09239,-0.38988 -5.97206,-1.75725 -2.87969,-1.36737 -4.62353,-2.6276 -4.62353,-5.89671 V -2.9531392 c 0,-3.6312189 -1.32487,-6.9562171 -3.31169,-9.2617568 -1.98682,-2.30552 -4.4165,-3.63174 -6.59588,-4.46102 -4.35874,-1.65858 -8.38931,-1.53986 -8.38931,-1.53986 z"
         id="path3283"
         inkscape:connector-curvature="0" />
    </g>
  </g>
</svg>
