<?xml version="1.0" encoding="utf-8"?>
<!-- Generator: Adobe Illustrator 27.5.0, SVG Export Plug-In . SVG Version: 6.00 Build 0)  -->
<svg version="1.1" id="svg3908" xmlns="http://www.w3.org/2000/svg" xmlns:xlink="http://www.w3.org/1999/xlink" x="0px" y="0px"
	 viewBox="0 0 1512 1512" style="enable-background:new 0 0 1512 1512;" xml:space="preserve">
<style type="text/css">
	.st0{enable-background:new    ;}
	.st1{fill:#1F567D;}
</style>
<g id="layer1">
	<g id="text2967">
		<g class="st0">
			<path d="M116.2,1392.8H58.3v39.2h68v24.2H28.2v-146.4h97.9v24.4H58.3v34.9h57.9V1392.8z"/>
			<path d="M168.8,1347.4l0.9,12.6c7.8-9.7,18.2-14.6,31.3-14.6c11.5,0,20.1,3.4,25.7,10.2c5.6,6.8,8.5,16.9,8.6,30.4v70.3h-29.1
				v-69.6c0-6.2-1.3-10.6-4-13.4c-2.7-2.8-7.1-4.2-13.4-4.2c-8.2,0-14.3,3.5-18.4,10.5v76.7h-29.1v-108.8H168.8z"/>
			<path d="M307.5,1458.2c-16,0-28.9-4.9-39-14.7c-10-9.8-15-22.8-15-39.1v-2.8c0-10.9,2.1-20.7,6.3-29.3
				c4.2-8.6,10.2-15.2,17.9-19.9c7.7-4.7,16.6-7,26.5-7c14.9,0,26.6,4.7,35.1,14.1c8.5,9.4,12.8,22.7,12.8,39.9v11.9h-69.3
				c0.9,7.1,3.8,12.8,8.5,17.1c4.7,4.3,10.7,6.4,17.9,6.4c11.2,0,19.9-4.1,26.2-12.2l14.3,16c-4.4,6.2-10.3,11-17.7,14.4
				C324.8,1456.5,316.5,1458.2,307.5,1458.2z M304.2,1368.8c-5.8,0-10.4,2-14,5.9c-3.6,3.9-5.9,9.5-6.9,16.8h40.4v-2.3
				c-0.1-6.5-1.9-11.5-5.2-15C315.1,1370.6,310.3,1368.8,304.2,1368.8z"/>
		</g>
		<g class="st0">
			<path d="M436.4,1374.7c-4-0.5-7.4-0.8-10.5-0.8c-11,0-18.2,3.7-21.6,11.2v71.2h-29.1v-108.8h27.4l0.8,13c5.8-10,13.9-15,24.2-15
				c3.2,0,6.2,0.4,9,1.3L436.4,1374.7z"/>
		</g>
		<g class="st0">
			<path d="M449,1401c0-16.7,4-30.1,11.9-40.3c7.9-10.2,18.7-15.3,32.1-15.3c11.9,0,21.2,4.1,27.9,12.3l1.2-10.3h26.3v105.2
				c0,9.5-2.2,17.8-6.5,24.8c-4.3,7-10.4,12.4-18.2,16.1c-7.8,3.7-17,5.5-27.5,5.5c-8,0-15.8-1.6-23.3-4.8
				c-7.6-3.2-13.3-7.3-17.2-12.3l12.9-17.7c7.2,8.1,16,12.2,26.3,12.2c7.7,0,13.7-2.1,18-6.2c4.3-4.1,6.4-10,6.4-17.5v-5.8
				c-6.7,7.6-15.5,11.4-26.4,11.4c-13.1,0-23.6-5.1-31.7-15.3c-8.1-10.2-12.1-23.8-12.1-40.7V1401z M478.1,1403.2
				c0,9.9,2,17.6,5.9,23.2c4,5.6,9.4,8.4,16.3,8.4c8.8,0,15.2-3.3,19-10V1379c-3.9-6.6-10.2-10-18.8-10c-7,0-12.5,2.9-16.4,8.6
				C480.1,1383.3,478.1,1391.8,478.1,1403.2z"/>
			<path d="M611.4,1415.1l20.1-67.7h31.2l-43.7,125.7l-2.4,5.7c-6.5,14.2-17.2,21.3-32.2,21.3c-4.2,0-8.5-0.6-12.9-1.9v-22l4.4,0.1
				c5.5,0,9.6-0.8,12.3-2.5c2.7-1.7,4.8-4.5,6.4-8.3l3.4-8.9l-38.1-109.1h31.3L611.4,1415.1z"/>
			<path d="M727.3,1456.2v-146.4h45c12.9,0,24.4,2.9,34.5,8.7c10.2,5.8,18.1,14,23.8,24.7c5.7,10.7,8.5,22.8,8.5,36.4v6.7
				c0,13.6-2.8,25.7-8.4,36.3c-5.6,10.6-13.5,18.8-23.7,24.6s-21.7,8.8-34.5,8.8H727.3z M757.5,1334.2v97.7H772
				c11.8,0,20.8-3.9,27-11.6c6.2-7.7,9.4-18.7,9.6-33.1v-7.7c0-14.9-3.1-26.2-9.2-33.8c-6.2-7.7-15.2-11.5-27-11.5H757.5z"/>
			<path d="M922.3,1456.2c-1.3-2.6-2.3-5.9-2.9-9.8c-7,7.8-16.2,11.8-27.4,11.8c-10.7,0-19.5-3.1-26.5-9.2
				c-7-6.2-10.5-13.9-10.5-23.3c0-11.5,4.3-20.4,12.8-26.5c8.5-6.2,20.9-9.3,37-9.4h13.4v-6.2c0-5-1.3-9-3.9-12.1
				c-2.6-3-6.7-4.5-12.2-4.5c-4.9,0-8.7,1.2-11.5,3.5c-2.8,2.3-4.2,5.6-4.2,9.7h-29.1c0-6.3,1.9-12.1,5.8-17.5
				c3.9-5.4,9.4-9.6,16.5-12.6c7.1-3,15.1-4.6,23.9-4.6c13.4,0,24,3.4,31.9,10.1c7.9,6.7,11.8,16.2,11.8,28.4v47.2
				c0.1,10.3,1.5,18.1,4.3,23.4v1.7H922.3z M898.2,1436c4.3,0,8.2-1,11.9-2.9c3.6-1.9,6.3-4.5,8-7.7v-18.7h-10.9
				c-14.5,0-22.3,5-23.2,15.1l-0.1,1.7c0,3.6,1.3,6.6,3.8,8.9C890.3,1434.8,893.8,1436,898.2,1436z"/>
			<path d="M1004.4,1320.7v26.7h18.6v21.3h-18.6v54.3c0,4,0.8,6.9,2.3,8.6c1.5,1.7,4.5,2.6,8.8,2.6c3.2,0,6.1-0.2,8.5-0.7v22
				c-5.7,1.7-11.6,2.6-17.6,2.6c-20.4,0-30.8-10.3-31.2-30.9v-58.6h-15.9v-21.3h15.9v-26.7H1004.4z"/>
			<path d="M1102.2,1456.2c-1.3-2.6-2.3-5.9-2.9-9.8c-7,7.8-16.2,11.8-27.4,11.8c-10.7,0-19.5-3.1-26.5-9.2
				c-7-6.2-10.5-13.9-10.5-23.3c0-11.5,4.3-20.4,12.8-26.5c8.5-6.2,20.9-9.3,37-9.4h13.4v-6.2c0-5-1.3-9-3.9-12.1
				c-2.6-3-6.7-4.5-12.2-4.5c-4.9,0-8.7,1.2-11.5,3.5c-2.8,2.3-4.2,5.6-4.2,9.7h-29.1c0-6.3,1.9-12.1,5.8-17.5
				c3.9-5.4,9.4-9.6,16.5-12.6c7.1-3,15.1-4.6,23.9-4.6c13.4,0,24,3.4,31.9,10.1c7.9,6.7,11.8,16.2,11.8,28.4v47.2
				c0.1,10.3,1.5,18.1,4.3,23.4v1.7H1102.2z M1078.2,1436c4.3,0,8.2-1,11.9-2.9c3.6-1.9,6.3-4.5,8-7.7v-18.7h-10.9
				c-14.5,0-22.3,5-23.2,15.1l-0.1,1.7c0,3.6,1.3,6.6,3.8,8.9C1070.3,1434.8,1073.8,1436,1078.2,1436z"/>
			<path d="M1247.6,1402.8c0,17.4-3.7,31-11.2,40.8c-7.4,9.8-17.8,14.6-31.2,14.6c-11.8,0-21.2-4.5-28.3-13.6l-1.3,11.6h-26.1
				v-154.4h29.1v55.4c6.7-7.8,15.5-11.8,26.4-11.8c13.3,0,23.7,4.9,31.2,14.6c7.5,9.8,11.3,23.5,11.3,41.2V1402.8z M1218.6,1400.7
				c0-11-1.7-19-5.2-24.1c-3.5-5.1-8.7-7.6-15.6-7.6c-9.2,0-15.6,3.8-19.1,11.4v42.9c3.6,7.6,10,11.5,19.3,11.5
				c9.4,0,15.5-4.6,18.5-13.9C1217.9,1416.5,1218.6,1409.8,1218.6,1400.7z"/>
			<path d="M1330.7,1445.1c-7.2,8.7-17.1,13.1-29.8,13.1c-11.7,0-20.6-3.4-26.7-10.1c-6.1-6.7-9.3-16.5-9.4-29.5v-71.3h29.1v70.4
				c0,11.3,5.2,17,15.5,17c9.9,0,16.6-3.4,20.3-10.3v-77.1h29.2v108.8h-27.3L1330.7,1445.1z"/>
			<path d="M1439.6,1426.1c0-3.6-1.8-6.3-5.3-8.4c-3.5-2-9.2-3.9-16.9-5.5c-25.9-5.4-38.8-16.4-38.8-33c0-9.7,4-17.7,12-24.2
				c8-6.5,18.5-9.7,31.4-9.7c13.8,0,24.8,3.3,33.1,9.8c8.3,6.5,12.4,14.9,12.4,25.3h-29.1c0-4.2-1.3-7.6-4-10.3
				c-2.7-2.7-6.9-4.1-12.6-4.1c-4.9,0-8.7,1.1-11.4,3.3c-2.7,2.2-4,5-4,8.4c0,3.2,1.5,5.8,4.6,7.8c3,2,8.2,3.7,15.4,5.1
				c7.2,1.4,13.3,3.1,18.3,4.9c15.3,5.6,23,15.4,23,29.3c0,9.9-4.3,17.9-12.8,24.1c-8.5,6.1-19.5,9.2-33,9.2
				c-9.1,0-17.2-1.6-24.3-4.9c-7.1-3.3-12.6-7.7-16.6-13.4c-4-5.7-6-11.8-6-18.3h27.5c0.3,5.2,2.2,9.1,5.7,11.9
				c3.6,2.7,8.3,4.1,14.3,4.1c5.6,0,9.8-1.1,12.6-3.2C1438.2,1432.3,1439.6,1429.6,1439.6,1426.1z"/>
		</g>
	</g>
	<path id="path842" class="st1" d="M752.7,7.4C361.9,7.4,45.1,324.2,45.1,715l0,0c0.2,220.9,103.6,429.1,279.6,562.7l50.1-68.2
		c-154.3-117.6-245-300.4-245.3-494.5c0-344.2,279-623.2,623.2-623.2l0,0c344.2,0,623.2,279,623.2,623.2l0,0
		c-0.2,195.5-92.2,379.6-248.5,497.2l49.8,67.8c177.9-133.4,282.8-342.7,283.1-565C1460.3,324.2,1143.5,7.4,752.7,7.4L752.7,7.4z"/>
</g>
<g>
	<path class="st1" d="M1069.4,1056.4H973l3.6-477.6l-84.5-137L442.5,443l0.7-89.4h626.1L1069.4,1056.4L1069.4,1056.4z M998.2,1031.4
		h46.1V378.6H468l-0.3,39.4l438.3-1.3l95.7,155.1L998.2,1031.4z"/>
	<path class="st1" d="M666.5,1055H443.1V492.3h97.7L666.5,657V1055z M468.1,1030h173.4V665.4l-113-148.2h-60.4V1030z"/>
	<path class="st1" d="M799.7,1055h-91V655.4L593.5,492.3h112.8l93.5,128.9L799.7,1055L799.7,1055z M733.7,1030h41V629.2l-81.2-112
		h-51.8l92,130.3V1030z"/>
	<path class="st1" d="M927.7,1055h-86.5V611l-81.7-118.8h103.2l64.9,92.9L927.7,1055L927.7,1055z M866.3,1030h36.5V593.1l-52.9-75.8
		h-42.7l59.1,86L866.3,1030L866.3,1030z"/>
</g>
</svg>
